<svg xmlns="http://www.w3.org/2000/svg" width="400" height="400" viewBox="0 0 300 300" fill="rgb(9.411765%,8.627451%,8.627451%)" xmlns:v="https://vecta.io/nano"><path d="M150 11.961c-78.156 0-141.535 63.363-141.535 141.535 0 62.535 40.555 115.586 96.789 134.301 7.074 1.313 9.668-3.07 9.668-6.809l-.191-26.348c-39.375 8.559-47.684-16.699-47.684-16.699-6.437-16.359-15.715-20.711-15.715-20.711-12.844-8.785.969-8.602.969-8.602 14.211.996 21.695 14.586 21.695 14.586 12.625 21.633 33.109 15.379 41.188 11.766 1.27-9.148 4.938-15.395 8.984-18.93-31.434-3.574-64.484-15.711-64.484-69.945 0-15.449 5.531-28.078 14.586-37.992-1.473-3.562-6.316-17.957 1.367-37.453 0 0 11.883-3.801 38.93 14.508 11.293-3.137 23.402-4.715 35.434-4.77 12.023.055 24.141 1.629 35.453 4.766 27.016-18.312 38.883-14.508 38.883-14.508 7.703 19.492 2.859 33.891 1.391 37.453 9.074 9.914 14.566 22.539 14.566 37.992 0 54.363-33.109 66.328-64.625 69.836 5.078 4.391 9.602 13.008 9.602 26.211l-.164 38.84c0 3.766 2.551 8.18 9.723 6.789 56.203-18.734 96.707-71.77 96.707-134.281 0-78.168-63.371-141.535-141.535-141.535zm0 0" fill-rule="evenodd"/><path d="M62.07 215.172c-.309.703-1.418.914-2.426.434-1.031-.461-1.605-1.418-1.27-2.125.305-.727 1.41-.926 2.438-.441 1.031.461 1.617 1.43 1.258 2.133zm5.734 6.395c-.672.625-1.992.336-2.887-.656-.93-.984-1.102-2.305-.414-2.937.695-.625 1.977-.328 2.906.656.922.996 1.105 2.305.398 2.941zm5.582 8.148c-.867.605-2.285.039-3.164-1.219-.867-1.262-.867-2.773.023-3.375.875-.605 2.273-.059 3.164 1.188.863 1.277.863 2.789-.023 3.406zm7.645 7.879c-.773.855-2.43.625-3.637-.539-1.238-1.141-1.582-2.766-.805-3.621.785-.855 2.449-.617 3.664.539 1.234 1.141 1.609 2.766.781 3.617zm10.547 4.57c-.344 1.109-1.934 1.613-3.539 1.141-1.602-.484-2.648-1.781-2.32-2.902s1.93-1.641 3.543-1.137c1.602.484 2.648 1.773 2.316 2.898zm11.586.848c.039 1.168-1.32 2.133-3 2.156-1.695.039-3.066-.906-3.082-2.055 0-1.18 1.328-2.133 3.023-2.168 1.68-.027 3.059.91 3.059 2.063zm10.773-1.832c.203 1.137-.965 2.305-2.637 2.617-1.641.305-3.164-.402-3.375-1.531-.203-1.168.988-2.336 2.629-2.637 1.672-.289 3.172.398 3.383 1.551zm0 0"/></svg>