<svg xmlns="http://www.w3.org/2000/svg" width="400" height="400" viewBox="0 0 300 300" xmlns:v="https://vecta.io/nano"><style><![CDATA[.B{fill:rgb(98.823529%,42.745098%,14.901961%)}.C{fill:rgb(88.627451%,26.27451%,16.078431%)}.D{fill:rgb(98.823529%,63.921569%,14.901961%)}]]></style><path d="M296.754 169.477l-16.484-50.734-32.676-100.555c-1.68-5.172-9-5.172-10.68 0l-32.672 100.555H95.758L63.086 18.188c-1.684-5.172-9-5.172-10.684 0L19.734 118.742 3.246 169.477a11.23 11.23 0 0 0 4.078 12.559L150 285.688l142.672-103.656c3.938-2.859 5.582-7.93 4.078-12.555" class="B"/><path d="M150 285.688l54.242-166.945H95.758zm0 0" class="C"/><path d="M150 285.688L95.758 118.742H19.734zm0 0" class="B"/><path d="M19.734 118.742L3.242 169.477c-1.504 4.625.145 9.695 4.078 12.555L150 285.688zm0 0" class="D"/><path d="M19.734 118.742h76.023L63.086 18.188c-1.684-5.172-9-5.172-10.684 0zm0 0" class="C"/><path d="M150 285.688l54.242-166.945h76.027zm0 0" class="B"/><path d="M280.266 118.742l16.488 50.734c1.504 4.625-.141 9.695-4.078 12.555L150 285.688zm0 0" class="D"/><path d="M280.266 118.742h-76.02l32.672-100.551c1.68-5.172 9-5.172 10.68 0l32.672 100.551zm0 0" class="C"/></svg>