<svg xmlns="http://www.w3.org/2000/svg" width="400" height="400" viewBox="0 0 300 300" xmlns:v="https://vecta.io/nano"><path d="M190.914 96.039l9.609.164 26.109-26.109 1.266-11.062c-20.711-18.453-48.055-29.687-77.93-29.687-54.094 0-99.75 36.805-113.266 86.664 2.852-1.988 8.945-.5 8.945-.5l52.172-8.578s2.68-4.437 4.039-4.219A65.07 65.07 0 0 1 150 81.445c15.469.031 29.719 5.5 40.914 14.539zm0 0" fill="rgb(91.764706%,26.27451%,20.784314%)"/><path d="M263.297 116.109c-6.062-22.359-18.555-42.102-35.414-57.078L190.914 96c14.813 11.953 24.313 30.242 24.313 50.719v6.523c17.984 0 32.598 14.645 32.598 32.598 0 17.988-14.645 32.598-32.598 32.598h-65.195L143.508 225v39.121l6.523 6.492h65.195c46.789-.062 84.707-37.977 84.773-84.77-.031-28.852-14.531-54.375-36.703-69.73zm0 0" fill="rgb(25.882353%,52.156863%,95.686275%)"/><path d="M84.773 270.656h65.156v-52.219H84.773c-4.629 0-9.203-.992-13.414-2.914l-9.41 2.883-26.109 26.109-2.285 8.813c14.711 11.223 32.707 17.301 51.215 17.289zm0 0" fill="rgb(20.392157%,65.882353%,32.54902%)"/><path d="M84.773 101.109C37.984 101.176.066 139.086 0 185.879c0 27.527 13.188 52.008 33.59 67.512l37.801-37.797c-11.687-5.27-19.203-16.895-19.215-29.715 0-17.988 14.645-32.598 32.598-32.598 13.219 0 24.582 7.969 29.719 19.219l37.801-37.801c-15.504-20.402-39.984-33.59-67.516-33.59zm0 0" fill="rgb(98.431373%,73.72549%,1.960784%)"/></svg>