<svg xmlns="http://www.w3.org/2000/svg" width="400" height="400" viewBox="0 0 300 300" xmlns:v="https://vecta.io/nano"><path d="M241.406 300H56.719c-15.766-.062-28.531-12.828-28.594-28.594V28.594C28.188 12.828 40.953.063 56.719 0h184.688C257.172.063 269.938 12.828 270 28.594v242.813c-.062 15.766-12.828 28.531-28.594 28.594zm0 0" fill="rgb(40.392157%,38.431373%,65.098039%)"/><path d="M179.766 258.691V139.57s7.734-28.535-95.508 11.719c-.117 1.055-.117-110.273-.117-110.273l33.633-.176v70.313s94.336-37.207 94.336 28.125v118.711h-32.52zM198.984 83.73h-35.156c12.891-15.82 24.609-42.773 24.609-42.773h36.914s-6.328 17.578-25.781 42.773zM84.727 258.457v-67.793l33.984 33.984-33.984 33.984zm0 0" fill="rgb(100%,100%,100%)"/></svg>