<svg xmlns="http://www.w3.org/2000/svg" width="400" height="400" viewBox="0 0 300 300" xmlns:v="https://vecta.io/nano"><defs><radialGradient id="A" gradientUnits="userSpaceOnUse" cx="52.528" cy="-49.92" fx="52.528" fy="-49.92" r="104.617" gradientTransform="matrix(2.867586,0,0,2.874868,-0.62798,-6.485639)"><stop offset="0" stop-color="rgb(12.54902%,77.647059%,71.764706%)"/><stop offset="1" stop-color="rgb(30.196078%,60.392157%,74.901961%)"/></radialGradient></defs><path d="M217.25 104.109l-.109-.047c-.062-.023-.125-.047-.18-.102a.86.86 0 0 1-.219-.73l6.039-36.977 28.32 28.371-29.453 12.551c-.082.031-.168.051-.258.047h-.117c-.039-.027-.078-.055-.156-.133-1.098-1.223-2.406-2.234-3.867-2.98zm41.078-2.254l30.285 30.324c6.289 6.309 9.438 9.453 10.586 13.098.172.539.313 1.082.422 1.637l-72.371-30.695-.117-.047c-.289-.117-.625-.25-.625-.547s.344-.437.633-.555l.094-.039zm40.059 54.793c-1.562 2.941-4.609 5.992-9.766 11.164l-34.145 34.184-44.156-9.211-.234-.047c-.391-.062-.805-.133-.805-.484a13.36 13.36 0 0 0-5.117-9.332c-.18-.18-.133-.461-.078-.723 0-.035 0-.074.016-.109l8.305-51.059.031-.172c.043-.391.117-.844.469-.844 3.594-.449 6.859-2.324 9.063-5.203.07-.078.117-.164.211-.215.25-.117.547 0 .805.113l75.395 31.938zm-51.762 53.211l-56.145 56.223 9.613-59.148.016-.078a1.37 1.37 0 0 1 .043-.227c.078-.187.281-.266.477-.344l.094-.039c2.105-.902 3.965-2.289 5.43-4.047.188-.219.414-.43.703-.469.078-.012.152-.012.227 0l39.535 8.137zm-68.027 68.125l-6.328 6.336-69.965-101.258c-.023-.039-.051-.074-.074-.113-.109-.148-.227-.297-.203-.469 0-.125.086-.234.172-.328l.074-.102c.211-.312.391-.625.586-.961l.156-.273.027-.027c.109-.187.211-.367.398-.469.164-.078.391-.047.57-.008l77.512 16.008a1.35 1.35 0 0 1 .594.258c.102.102.125.211.148.336a13.74 13.74 0 0 0 8.031 9.195c.219.109.125.352.023.609a1.86 1.86 0 0 0-.117.352l-11.602 70.91zm-13.219 13.23c-4.664 4.621-7.414 7.07-10.523 8.059-3.066.969-6.355.969-9.422 0-3.641-1.16-6.789-4.305-13.078-10.609l-70.262-70.363 18.352-28.504a1.17 1.17 0 0 1 .313-.367c.195-.141.477-.078.711 0a18.99 18.99 0 0 0 12.797-.648c.211-.078.422-.133.586.016a1.21 1.21 0 0 1 .219.25l70.309 102.172zM55.32 211.516l-16.117-16.141 31.828-13.598a.65.65 0 0 1 .258-.055c.266 0 .422.266.563.508.32.492.66.973 1.016 1.441l.102.125c.094.133.031.266-.062.391l-17.578 27.328zM32.07 188.23l-20.395-20.418c-3.469-3.477-5.984-5.996-7.734-8.16l62.004 12.879c.078.012.156.027.234.039.383.063.805.133.805.492 0 .391-.461.57-.852.719l-.18.078zM.379 149.152c.07-1.316.309-2.617.703-3.875 1.156-3.645 4.297-6.789 10.594-13.098l26.098-26.133 36.141 52.32c.211.281.445.594.203.828-1.141 1.262-2.281 2.637-3.086 4.133-.086.191-.223.359-.391.484-.102.063-.211.039-.328.016h-.016L.379 149.145zm44.379-50.098l35.07-35.141 26.039 11.066 17.863 7.586c.234.094.445.188.547.426.063.141.027.32 0 .469a15.68 15.68 0 0 0 4.086 14.301c.234.234 0 .57-.203.863l-.109.164-35.629 55.262c-.094.156-.18.289-.336.391-.187.117-.453.063-.672.008a17.65 17.65 0 0 0-4.242-.578c-1.281 0-2.672.234-4.078.492h-.008c-.156.023-.297.055-.422-.039a1.8 1.8 0 0 1-.352-.398L44.75 99.055zM86.93 56.82l45.426-45.492c6.289-6.297 9.438-9.449 13.078-10.602 3.066-.969 6.355-.969 9.422 0 3.641 1.152 6.789 4.305 13.078 10.602l9.844 9.859-32.305 50.105a1.14 1.14 0 0 1-.32.375c-.195.133-.469.078-.703 0-5.172-1.57-10.785-.488-15 2.895-.211.219-.523.094-.789-.023L86.93 56.816zm97.707-28.762l29.832 29.871-7.187 44.582v.117c-.008.102-.031.203-.062.297-.078.156-.234.188-.395.234-1.535.469-2.98 1.188-4.281 2.137-.055.043-.105.086-.156.133-.086.094-.172.18-.312.195-.113.004-.227-.016-.336-.055l-45.453-19.34-.086-.039c-.289-.117-.633-.258-.633-.555-.27-2.539-1.094-4.984-2.422-7.16-.219-.359-.461-.734-.273-1.105zm-30.719 67.332l42.613 18.074c.234.109.492.211.594.453a.86.86 0 0 1 0 .445c-.125.629-.234 1.34-.234 2.059v1.199c0 .297-.305.422-.586.539l-.09.031-94.902 40.473c-.133 0-.273 0-.406-.133-.234-.234 0-.562.211-.859.039-.051.074-.105.109-.156l35.02-54.301.063-.094c.203-.328.438-.695.813-.695l.352.055c.797.109 1.5.211 2.211.211 5.313 0 10.234-2.59 13.203-7.02a1.27 1.27 0 0 1 .266-.312c.211-.156.523-.078.766.031zm-48.801 71.867l95.945-40.977s.141 0 .273.133a13.53 13.53 0 0 0 1.398 1.207l.211.133c.195.109.391.234.406.438 0 .078 0 .125-.02.195l-8.219 50.559-.031.203c-.055.391-.105.836-.477.836a13.51 13.51 0 0 0-10.727 6.629l-.039.063c-.105.18-.211.352-.391.445-.164.078-.375.047-.547.008l-76.508-15.805c-.078-.016-1.191-4.059-1.277-4.066zm0 0" fill="url(#A)"/></svg>